<svg class="diagram-root" style="background: #f5f6f6" xmlns="http://www.w3.org/2000/svg" xmlns:xlink="http://www.w3.org/1999/xlink"><style>.diagram-root { font-family: "Helvetica Neue", sans-serif; font-size: 12px; } .t { overflow: visible; } .t-bg { y: 40; fill: #fff;   } .th { fill: #005aa0;   } .tht { fill: #fff; font-size: 14px;  } .tf { fill: #323c46; overflow: visible; } .tf.pk { fill: #005aa0; font-weight: bold; } .tf.fk { font-weight: bold; } .ty { fill: #adb1b5; font-weight: normal; text-anchor: end; } .r { fill: transparent; stroke: #c3c3c3; stroke-width: 1; } .l { stroke: 1; } .i { fill: #c2c7ce; stroke: #c2c7ce; } .i.ix { fill: #afb3b6; stroke: #000; } .fa { fill: transparent; overflow: visible; } .fa .bg.hover { fill: #f7f7f7; } .c { cy: 12; r: 4; stroke: #d2d2dc; fill: #d2d2dc; } .hr { fill: transparent; stroke: #323c46; stroke-opacity: 0.035; stroke-width: 13; } .dc { stroke: #fa5a3c; fill: #fa5a3c; } .x { stroke: white; stroke-width: 1; } .hl .th { fill: #1b9bff; } .hl .tht {  } .fhl .bg { fill: #e7f4ff; } .fhls .bg {  } .r.hl { stroke: #1b9bff; } .dim { opacity: 0.25; }</style><g class="drawing-wrapper" transform="translate(-34, -2) scale(1,1)"><g class="rs"><path d="M 258 114 m -1, 0 a 1,1 0 1,0 2,0 a 1,1 0 1,0 -2,0 M 258 114 m -0.5, 0 a 0.5,0.5 0 1,0 1,0 a 0.5,0.5 0 1,0 -1,0  M258 114 L258 114 246 114 M 258 120 m -1, 0 a 1,1 0 1,0 2,0 a 1,1 0 1,0 -2,0 M 258 120 m -0.5, 0 a 0.5,0.5 0 1,0 1,0 a 0.5,0.5 0 1,0 -1,0  M258 120 L258 120 251 114 258 108 M 258 108 m -1, 0 a 1,1 0 1,0 2,0 a 1,1 0 1,0 -2,0 M 258 108 m -0.5, 0 a 0.5,0.5 0 1,0 1,0 a 0.5,0.5 0 1,0 -1,0  M246 114 C -92 114, 16 90, 66 90 M 78 90 m -1, 0 a 1,1 0 1,0 2,0 a 1,1 0 1,0 -2,0 M 78 90 m -0.5, 0 a 0.5,0.5 0 1,0 1,0 a 0.5,0.5 0 1,0 -1,0  M78 90 L78 90 66 90 M72 96 L72 96 72 84" id="h935577080" class="r"></path><path d="M 449.16 347 m -1, 0 a 1,1 0 1,0 2,0 a 1,1 0 1,0 -2,0 M 449.16 347 m -0.5, 0 a 0.5,0.5 0 1,0 1,0 a 0.5,0.5 0 1,0 -1,0  M449.16 347 L449.16 347 461.16 347 M 449.16 353 m -1, 0 a 1,1 0 1,0 2,0 a 1,1 0 1,0 -2,0 M 449.16 353 m -0.5, 0 a 0.5,0.5 0 1,0 1,0 a 0.5,0.5 0 1,0 -1,0  M449.16 353 L449.16 353 456.16 347 449.16 341 M 449.16 341 m -1, 0 a 1,1 0 1,0 2,0 a 1,1 0 1,0 -2,0 M 449.16 341 m -0.5, 0 a 0.5,0.5 0 1,0 1,0 a 0.5,0.5 0 1,0 -1,0  M461.16 347 C 511.16 347, 645.5600000000001 345, 237.16 345 M 225.16 345 m -1, 0 a 1,1 0 1,0 2,0 a 1,1 0 1,0 -2,0 M 225.16 345 m -0.5, 0 a 0.5,0.5 0 1,0 1,0 a 0.5,0.5 0 1,0 -1,0  M225.16 345 L225.16 345 237.16 345 M231.16 351 L231.16 351 231.16 339" id="h3727233055" class="r"></path><path d="M 449.16 372 m -1, 0 a 1,1 0 1,0 2,0 a 1,1 0 1,0 -2,0 M 449.16 372 m -0.5, 0 a 0.5,0.5 0 1,0 1,0 a 0.5,0.5 0 1,0 -1,0  M449.16 372 L449.16 372 461.16 372 M 449.16 378 m -1, 0 a 1,1 0 1,0 2,0 a 1,1 0 1,0 -2,0 M 449.16 378 m -0.5, 0 a 0.5,0.5 0 1,0 1,0 a 0.5,0.5 0 1,0 -1,0  M449.16 378 L449.16 378 456.16 372 449.16 366 M 449.16 366 m -1, 0 a 1,1 0 1,0 2,0 a 1,1 0 1,0 -2,0 M 449.16 366 m -0.5, 0 a 0.5,0.5 0 1,0 1,0 a 0.5,0.5 0 1,0 -1,0  M461.16 372 C 511.16 372, 527.4380000000001 89, 434.03 89 M 422.03 89 m -1, 0 a 1,1 0 1,0 2,0 a 1,1 0 1,0 -2,0 M 422.03 89 m -0.5, 0 a 0.5,0.5 0 1,0 1,0 a 0.5,0.5 0 1,0 -1,0  M422.03 89 L422.03 89 434.03 89 M428.03 95 L428.03 95 428.03 83" id="h2084146805" class="r"></path><path d="M 463.16 471 m -1, 0 a 1,1 0 1,0 2,0 a 1,1 0 1,0 -2,0 M 463.16 471 m -0.5, 0 a 0.5,0.5 0 1,0 1,0 a 0.5,0.5 0 1,0 -1,0  M463.16 471 L463.16 471 475.16 471 M 463.16 477 m -1, 0 a 1,1 0 1,0 2,0 a 1,1 0 1,0 -2,0 M 463.16 477 m -0.5, 0 a 0.5,0.5 0 1,0 1,0 a 0.5,0.5 0 1,0 -1,0  M463.16 477 L463.16 477 470.16 471 463.16 465 M 463.16 465 m -1, 0 a 1,1 0 1,0 2,0 a 1,1 0 1,0 -2,0 M 463.16 465 m -0.5, 0 a 0.5,0.5 0 1,0 1,0 a 0.5,0.5 0 1,0 -1,0  M475.16 471 C 525.1600000000001 471, 549.8380000000001 89, 434.03 89 M 422.03 89 m -1, 0 a 1,1 0 1,0 2,0 a 1,1 0 1,0 -2,0 M 422.03 89 m -0.5, 0 a 0.5,0.5 0 1,0 1,0 a 0.5,0.5 0 1,0 -1,0  M422.03 89 L422.03 89 434.03 89 M428.03 95 L428.03 95 428.03 83" id="h4017936676" class="r"></path><path d="M 314 496 m -1, 0 a 1,1 0 1,0 2,0 a 1,1 0 1,0 -2,0 M 314 496 m -0.5, 0 a 0.5,0.5 0 1,0 1,0 a 0.5,0.5 0 1,0 -1,0  M314 496 L314 496 302 496 M 314 502 m -1, 0 a 1,1 0 1,0 2,0 a 1,1 0 1,0 -2,0 M 314 502 m -0.5, 0 a 0.5,0.5 0 1,0 1,0 a 0.5,0.5 0 1,0 -1,0  M314 502 L314 502 307 496 314 490 M 314 490 m -1, 0 a 1,1 0 1,0 2,0 a 1,1 0 1,0 -2,0 M 314 490 m -0.5, 0 a 0.5,0.5 0 1,0 1,0 a 0.5,0.5 0 1,0 -1,0  M302 496 Q 285.79 496, 269.58 420.5 T 237.16 345 M 225.16 345 m -1, 0 a 1,1 0 1,0 2,0 a 1,1 0 1,0 -2,0 M 225.16 345 m -0.5, 0 a 0.5,0.5 0 1,0 1,0 a 0.5,0.5 0 1,0 -1,0  M225.16 345 L225.16 345 237.16 345 M231.16 351 L231.16 351 231.16 339" id="h3692603967" class="r"></path><path d="M 622.35 103 m -1, 0 a 1,1 0 1,0 2,0 a 1,1 0 1,0 -2,0 M 622.35 103 m -0.5, 0 a 0.5,0.5 0 1,0 1,0 a 0.5,0.5 0 1,0 -1,0  M622.35 103 L622.35 103 634.35 103 M 622.35 109 m -1, 0 a 1,1 0 1,0 2,0 a 1,1 0 1,0 -2,0 M 622.35 109 m -0.5, 0 a 0.5,0.5 0 1,0 1,0 a 0.5,0.5 0 1,0 -1,0  M622.35 109 L622.35 109 629.35 103 622.35 97 M 622.35 97 m -1, 0 a 1,1 0 1,0 2,0 a 1,1 0 1,0 -2,0 M 622.35 97 m -0.5, 0 a 0.5,0.5 0 1,0 1,0 a 0.5,0.5 0 1,0 -1,0  M634.35 103 C 684.35 103, 804.5420000000001 89, 434.03 89 M 422.03 89 m -1, 0 a 1,1 0 1,0 2,0 a 1,1 0 1,0 -2,0 M 422.03 89 m -0.5, 0 a 0.5,0.5 0 1,0 1,0 a 0.5,0.5 0 1,0 -1,0  M422.03 89 L422.03 89 434.03 89 M428.03 95 L428.03 95 428.03 83" id="h3891720837" class="r"></path></g><g class="hrs"></g><g class="ts"><svg width="162.04" height="100" x="78" y="33" id="h3517680912" class="t"><rect height="40" width="162.04" class="th"></rect><text x="13" y="25" class="tht">Titles</text><rect height="60" width="162.04" class="t-bg" y="40"></rect><text x="13" y="61" class="tf pk">Title_id<tspan x="149.04" class="ty">VARCHAR</tspan></text><path d="M7,14A2,2 0 0,1 5,12A2,2 0 0,1 7,10A2,2 0 0,1 9,12A2,2 0 0,1 7,14M12.65,10C11.83,7.67 9.61,6 7, 6A6, 6 0 0, 0 1, 12A6, 6 0 0, 0 7, 18C9.61, 18 11.83, 16.33 12.65, 14H17V18H21V14H23V10H12.65Z" class="i pk" transform="translate(71.24898437499999, 48) scale(0.65)"></path><text x="13" y="86" class="tf">Title<tspan x="149.04" class="ty">VARCHAR</tspan></text><path d="M814.545 581.818v-23.273H535.273v-93.09h-46.546v93.09H209.455v139.637H256V605.09h232.727v93.09h46.546v-93.09H768v93.09h46.545V581.819zM674.91 465.455H349.091V139.636h325.818v325.819zM325.82 884.364H139.635V698.182h186.182v186.182z m279.272 0H418.909V698.182h186.182v186.182z m279.273 0H698.182V698.182h186.182v186.182zM395.636 418.909h232.728V186.182H395.636v232.727zM186.182 837.82h93.09v-93.092h-93.09v93.091z m279.273 0h93.09v-93.092h-93.09v93.091z m279.272 0h93.091v-93.092h-93.09v93.091z" class="i ix" transform="translate(76.24898437499999, 75) scale(0.014)"></path></svg><svg width="164.03" height="225" x="258" y="32" id="h3299212598" class="t"><rect height="40" width="164.03" class="th"></rect><text x="13" y="25" class="tht">Employees</text><rect height="185" width="164.03" class="t-bg" y="40"></rect><text x="13" y="61" class="tf pk">Emp_no<tspan x="151.03" class="ty">INTEGER</tspan></text><path d="M7,14A2,2 0 0,1 5,12A2,2 0 0,1 7,10A2,2 0 0,1 9,12A2,2 0 0,1 7,14M12.65,10C11.83,7.67 9.61,6 7, 6A6, 6 0 0, 0 1, 12A6, 6 0 0, 0 7, 18C9.61, 18 11.83, 16.33 12.65, 14H17V18H21V14H23V10H12.65Z" class="i pk" transform="translate(77.692109375, 48) scale(0.65)"></path><text x="13" y="86" class="tf fk">Emp_title<tspan x="151.03" class="ty">VARCHAR</tspan></text><text x="13" y="111" class="tf">Birth_date<tspan x="151.03" class="ty">DATE</tspan></text><text x="13" y="136" class="tf">First_name<tspan x="151.03" class="ty">VARCHAR</tspan></text><text x="13" y="161" class="tf">Last_name<tspan x="151.03" class="ty">VARCHAR</tspan></text><text x="13" y="186" class="tf">sex<tspan x="151.03" class="ty">VARCHAR</tspan></text><text x="13" y="211" class="tf">Hire_date<tspan x="151.03" class="ty">DATE</tspan></text></svg><svg width="169.16" height="100" x="56" y="288" id="h3708248841" class="t"><rect height="40" width="169.16" class="th"></rect><text x="13" y="25" class="tht">Departments</text><rect height="60" width="169.16" class="t-bg" y="40"></rect><text x="13" y="61" class="tf pk">Dept_no<tspan x="156.16" class="ty">VARCHAR</tspan></text><path d="M7,14A2,2 0 0,1 5,12A2,2 0 0,1 7,10A2,2 0 0,1 9,12A2,2 0 0,1 7,14M12.65,10C11.83,7.67 9.61,6 7, 6A6, 6 0 0, 0 1, 12A6, 6 0 0, 0 7, 18C9.61, 18 11.83, 16.33 12.65, 14H17V18H21V14H23V10H12.65Z" class="i pk" transform="translate(78.368984375, 48) scale(0.65)"></path><text x="13" y="86" class="tf">Dept_name<tspan x="156.16" class="ty">VARCHAR</tspan></text></svg><svg width="149.16" height="100" x="300" y="290" id="h2403958395" class="t"><rect height="40" width="149.16" class="th"></rect><text x="13" y="25" class="tht">Dept_manager</text><rect height="60" width="149.16" class="t-bg" y="40"></rect><text x="13" y="61" class="tf fk">Dept_no<tspan x="136.16" class="ty">VARCHAR</tspan></text><text x="13" y="86" class="tf fk">Emp_no<tspan x="136.16" class="ty">INTEGER</tspan></text></svg><svg width="149.16" height="100" x="314" y="414" id="h3353995054" class="t"><rect height="40" width="149.16" class="th"></rect><text x="13" y="25" class="tht">Dept_Emp</text><rect height="60" width="149.16" class="t-bg" y="40"></rect><text x="13" y="61" class="tf fk">Emp_no<tspan x="136.16" class="ty">INTEGER</tspan></text><text x="13" y="86" class="tf fk">Dept_no<tspan x="136.16" class="ty">VARCHAR</tspan></text></svg><svg width="148.35" height="100" x="474" y="46" id="h3858243705" class="t"><rect height="40" width="148.35" class="th"></rect><text x="13" y="25" class="tht">Salaries</text><rect height="60" width="148.35" class="t-bg" y="40"></rect><text x="13" y="61" class="tf fk">Emp_no<tspan x="135.35" class="ty">INTEGER</tspan></text><text x="13" y="86" class="tf">Salary<tspan x="135.35" class="ty">INTEGER</tspan></text><path d="M814.545 581.818v-23.273H535.273v-93.09h-46.546v93.09H209.455v139.637H256V605.09h232.727v93.09h46.546v-93.09H768v93.09h46.545V581.819zM674.91 465.455H349.091V139.636h325.818v325.819zM325.82 884.364H139.635V698.182h186.182v186.182z m279.272 0H418.909V698.182h186.182v186.182z m279.273 0H698.182V698.182h186.182v186.182zM395.636 418.909h232.728V186.182H395.636v232.727zM186.182 837.82h93.09v-93.092h-93.09v93.091z m279.273 0h93.09v-93.092h-93.09v93.091z m279.272 0h93.091v-93.092h-93.09v93.091z" class="i ix" transform="translate(67.012109375, 75) scale(0.014)"></path></svg></g></g><text class="qdbd-link" x="10" y="20">www.quickdatabasediagrams.com</text></svg>